<?xml version="1.0" standalone="no"?>
<!DOCTYPE svg PUBLIC "-//W3C//DTD SVG 20010904//EN"
 "http://www.w3.org/TR/2001/REC-SVG-20010904/DTD/svg10.dtd">
<svg version="1.0" xmlns="http://www.w3.org/2000/svg"
 width="500.000000pt" height="282.000000pt" viewBox="0 0 500.000000 282.000000"
 preserveAspectRatio="xMidYMid meet">
<metadata>
Created by potrace 1.13, written by Peter Selinger 2001-2015
</metadata>
<g transform="translate(0.000000,282.000000) scale(0.100000,-0.100000)"
fill="#4b7dd6" stroke="none">
<path d="M1948 2438 l-3 -383 -224 -2 c-123 -1 -225 -4 -227 -6 -2 -2 -112
-345 -245 -763 -132 -417 -242 -760 -244 -762 -2 -2 -112 326 -244 730 -133
403 -247 748 -254 766 l-12 33 -237 0 c-131 0 -238 -2 -239 -3 0 -2 2 -10 5
-18 3 -8 165 -454 360 -990 l354 -975 250 -3 249 -2 347 972 c191 535 350 980
354 988 4 8 8 -429 10 -972 l2 -988 211 0 210 0 -3 135 c-2 74 0 135 3 135 4
0 13 -15 20 -32 25 -61 138 -162 230 -206 107 -51 175 -69 322 -83 280 -27
500 41 678 208 199 188 302 472 302 833 1 589 -297 986 -788 1051 -280 37
-540 -56 -697 -249 l-43 -54 -3 251 c-1 138 -1 364 0 503 l3 251 99 -159 98
-159 2 -110 1 -110 48 -3 47 -3 0 108 0 108 100 163 c55 89 100 167 100 173 0
6 -20 9 -51 7 l-52 -3 -66 -117 c-36 -65 -69 -118 -73 -118 -4 0 -39 54 -78
120 l-71 120 -274 0 -275 0 -2 -382z m1105 -693 c208 -54 359 -233 412 -491
23 -110 21 -311 -4 -431 -28 -136 -78 -232 -166 -320 -122 -123 -267 -170
-441 -144 -306 44 -493 335 -477 741 13 355 166 590 417 645 83 18 190 18 259
0z"/>
<path d="M2980 2798 c-23 -54 -200 -522 -200 -529 0 -5 21 -9 48 -9 l47 0 26
73 26 72 110 3 109 3 26 -73 25 -73 257 -3 256 -2 0 45 0 45 -161 2 -162 3
157 192 c144 177 156 195 156 232 l0 41 -210 0 -210 0 0 -45 0 -44 146 -3 146
-3 -149 -182 c-81 -100 -150 -182 -153 -182 -3 -1 -23 45 -44 102 -21 56 -61
159 -88 230 l-50 127 -49 0 c-42 0 -51 -4 -59 -22z m103 -206 c21 -57 37 -105
37 -108 0 -2 -36 -4 -80 -4 -44 0 -80 3 -80 8 0 21 74 222 80 215 4 -4 23 -54
43 -111z"/>
<path d="M3730 2540 l0 -281 48 3 47 3 0 275 0 275 -47 3 -48 3 0 -281z"/>
<path d="M3890 2540 l0 -280 187 2 186 3 0 40 0 40 -136 3 -137 3 -2 232 -3
232 -47 3 -48 3 0 -281z"/>
<path d="M4280 2540 l0 -280 45 0 45 0 0 280 0 280 -45 0 -45 0 0 -280z"/>
<path d="M4435 2807 c-3 -7 -4 -131 -3 -277 l3 -265 48 -3 47 -3 1 208 0 208
35 -95 c19 -52 53 -146 75 -207 l41 -113 38 0 c44 0 34 -20 131 257 30 84 56
153 59 153 3 0 5 -91 5 -202 l0 -203 43 -3 42 -3 0 280 0 281 -64 0 -63 0 -74
-215 c-41 -118 -77 -209 -80 -202 -4 7 -36 95 -72 197 -36 102 -68 193 -72
203 -6 14 -20 17 -71 17 -43 0 -66 -4 -69 -13z"/>
</g>
</svg>
